<?xml version="1.0" encoding="UTF-8" standalone="no"?>
<!-- Created with Inkscape (http://www.inkscape.org/) -->

<svg
   width="4.2333331mm"
   height="3.96875mm"
   viewBox="0 0 4.2333331 3.9687499"
   version="1.1"
   id="svg8328"
   xmlns="http://www.w3.org/2000/svg"
   xmlns:svg="http://www.w3.org/2000/svg">
  <defs
     id="defs8325" />
  <g
     id="layer1"
     transform="translate(-53.717909,-158.43741)">
    <g
       id="g313236"
       transform="matrix(0.26458333,0,0,0.26458333,-156.91099,140.76505)"
       style="fill:#222222">
      <title
         id="title313228">padlock2-open</title>
      <path
         id="path37587-36"
         style="display:inline;fill:#222222;fill-opacity:1"
         d="m 802.57774,66.79319 c -0.26519,5e-5 -0.51952,0.10543 -0.70703,0.29297 l -1.70703,1.70703 h -1.08594 c -1.6447,0 -2.99999,1.3553 -3,3 v 7 c 0,1.6447 1.3553,3 3,3 h 10 c 1.64471,0 3,-1.3553 3,-3 v -7 c 0,-1.6447 -1.35529,-3 -3,-3 h -1.08593 l -1.70703,-1.70703 c -0.18751,-0.18754 -0.44183,-0.29292 -0.70704,-0.29297 z m 1.50196,4.71289 c 2.19729,0 4,1.80271 4,4 0,2.19729 -1.80271,4 -4,4 -2.19729,0 -4,-1.80271 -4,-4 0,-2.19729 1.80271,-4 4,-4 z m 0,2 c -1.11641,0 -2,0.88359 -2,2 0,1.11641 0.88359,2 2,2 1.11641,0 2,-0.88359 2,-2 0,-1.11641 -0.88359,-2 -2,-2 z" />
    </g>
  </g>
</svg>
