<?xml version="1.0" encoding="UTF-8" standalone="no"?>
<!-- Created with Inkscape (http://www.inkscape.org/) -->

<svg
   width="4.2333331mm"
   height="4.233521mm"
   viewBox="0 0 4.2333331 4.2335209"
   version="1.1"
   id="svg8328"
   xmlns="http://www.w3.org/2000/svg"
   xmlns:svg="http://www.w3.org/2000/svg">
  <defs
     id="defs8325" />
  <g
     id="layer1"
     transform="translate(-53.730374,-159.62593)">
    <g
       id="g313236"
       transform="matrix(0.26458333,0,0,0.26458333,-156.91099,140.76505)"
       style="fill:#222222">
      <title
         id="title313228">padlock2-open</title>
      <g
         id="g2176"
         transform="translate(716.12485,-248.71435)">
        <title
           id="title2178">camera-flash-disabled</title>
        <path
           style="fill:#222222"
           d="m 81.53079,320.469 -1.061,1.061 14,14 1.062,-1.062 z"
           id="path3849"
           mask="none" />
        <rect
           y="320"
           x="80"
           height="16"
           width="16"
           id="rect2152"
           style="fill:none" />
        <path
           style="fill:#222222;fill-opacity:0.35"
           d="m 88.970703,320 c -0.334337,0.0102 -0.641452,0.18682 -0.818359,0.4707 l -2.001953,3.20313 5.603515,5.60351 1.09375,-1.74804 c 0.105796,-0.16965 0.150901,-0.35159 0.150391,-0.5293 H 93 v -1 h -1 -2 v -5 c 1.84e-4,-0.56391 -0.465631,-1.01646 -1.029297,-1 z m -4.724609,6.7207 -1.09375,1.75 c -0.105796,0.16965 -0.150901,0.35159 -0.150391,0.5293 H 83 v 1 h 1 2 v 5 c 0.0016,1.00344 1.31499,1.37969 1.847656,0.5293 l 2.003906,-3.20508 z"
           id="path2154"
           mask="none" />
      </g>
    </g>
  </g>
</svg>
