<?xml version="1.0" encoding="UTF-8"?>
<svg xmlns="http://www.w3.org/2000/svg" xmlns:xlink="http://www.w3.org/1999/xlink" width="2400px" height="1810px" viewBox="0 0 2398 1810" version="1.1">
<g id="surface1">
<path style=" stroke:none;fill-rule:nonzero;fill:rgb(0%,0%,0%);fill-opacity:1;" d="M 1144.378906 114.589844 C 1102.8125 122.050781 1075.902344 129.78125 1032.472656 146.835938 C 999.964844 159.628906 985.84375 167.089844 956.535156 186.542969 C 895.253906 227.316406 844.894531 279.546875 821.183594 326.714844 C 801.730469 365.625 761.230469 465.558594 756.703125 486.34375 C 744.710938 539.910156 740.980469 647.304688 749.507812 687.542969 C 752.171875 700.070312 756.167969 718.191406 758.035156 728.050781 C 768.691406 779.75 839.566406 937.246094 896.050781 1035.3125 C 905.378906 1051.304688 930.691406 1095.808594 952.539062 1133.914062 C 1000.765625 1218.660156 1022.613281 1256.234375 1174.21875 1513.128906 L 1196.867188 1551.238281 L 1259.484375 1447.839844 C 1400.433594 1215.460938 1441.464844 1145.375 1494.21875 1048.636719 C 1533.921875 975.351562 1541.382812 960.695312 1580.816406 876.753906 C 1629.308594 773.355469 1643.960938 721.921875 1649.558594 635.3125 C 1652.488281 589.476562 1652.488281 580.949219 1648.226562 550.035156 C 1642.097656 506.066406 1637.566406 483.144531 1629.308594 458.363281 C 1625.84375 447.4375 1620.515625 428.78125 1617.585938 416.789062 C 1608.792969 380.546875 1595.734375 352.566406 1571.222656 316.855469 C 1532.054688 259.5625 1489.957031 216.65625 1438.800781 181.746094 C 1427.875 174.285156 1398.566406 159.09375 1373.519531 148.167969 C 1325.027344 126.582031 1306.910156 121.785156 1240.300781 113.257812 C 1200.332031 108.195312 1177.949219 108.460938 1144.378906 114.589844 Z M 1261.613281 235.578125 C 1331.15625 258.496094 1384.710938 312.59375 1409.226562 385.34375 C 1427.609375 440.507812 1422.28125 515.65625 1395.902344 568.421875 C 1372.1875 615.59375 1332.753906 653.964844 1286.128906 675.550781 C 1222.445312 704.867188 1148.375 701.136719 1087.09375 665.160156 C 1035.402344 635.046875 998.632812 585.210938 979.984375 520.453125 C 971.722656 491.675781 971.457031 429.847656 979.984375 399.46875 C 994.902344 344.304688 1027.410156 297.402344 1072.972656 264.890625 C 1096.953125 247.570312 1120.664062 237.441406 1160.367188 228.117188 C 1163.296875 227.316406 1182.480469 227.316406 1202.996094 227.582031 C 1234.703125 228.382812 1243.496094 229.449219 1261.613281 235.578125 Z M 1261.613281 235.578125 "/>
<path style=" stroke:none;fill-rule:nonzero;fill:rgb(0%,0%,0%);fill-opacity:1;" d="M 985.3125 1336.980469 C 987.175781 1337.78125 989.574219 1337.511719 990.375 1336.714844 C 991.441406 1335.914062 989.839844 1335.113281 986.910156 1335.382812 C 983.980469 1335.382812 983.179688 1336.179688 985.3125 1336.980469 Z M 985.3125 1336.980469 "/>
<path style=" stroke:none;fill-rule:nonzero;fill:rgb(0%,0%,0%);fill-opacity:1;" d="M 1404.960938 1336.980469 C 1407.359375 1337.511719 1411.089844 1337.511719 1412.953125 1336.980469 C 1414.554688 1336.179688 1412.6875 1335.648438 1408.160156 1335.648438 C 1403.894531 1335.648438 1402.296875 1336.179688 1404.960938 1336.980469 Z M 1404.960938 1336.980469 "/>
<path style=" stroke:none;fill-rule:nonzero;fill:rgb(0%,0%,0%);fill-opacity:1;" d="M 961.332031 1339.644531 C 964.527344 1340.179688 969.324219 1340.179688 971.988281 1339.644531 C 974.386719 1338.84375 971.722656 1338.3125 965.859375 1338.578125 C 960 1338.578125 957.867188 1339.113281 961.332031 1339.644531 Z M 961.332031 1339.644531 "/>
<path style=" stroke:none;fill-rule:nonzero;fill:rgb(0%,0%,0%);fill-opacity:1;" d="M 1450.789062 1343.109375 C 1525.925781 1354.570312 1579.484375 1369.226562 1621.3125 1389.480469 C 1729.222656 1441.976562 1677.269531 1508.867188 1501.414062 1544.042969 C 1412.421875 1561.898438 1317.300781 1569.890625 1197.667969 1569.890625 C 1063.644531 1569.890625 956.535156 1559.5 864.613281 1537.648438 C 724.195312 1504.070312 679.433594 1449.4375 752.4375 1400.136719 C 781.214844 1380.949219 847.558594 1359.632812 919.234375 1347.105469 C 960.53125 1339.910156 958.132812 1338.578125 913.636719 1344.441406 C 781.480469 1361.765625 665.84375 1394.007812 601.632812 1431.585938 C 579.78125 1444.109375 553.671875 1467.828125 544.613281 1483.015625 C 529.691406 1508.601562 534.222656 1537.648438 557.402344 1562.964844 C 617.085938 1628.253906 782.28125 1675.421875 1025.8125 1696.742188 C 1099.082031 1703.136719 1298.917969 1703.136719 1372.1875 1696.742188 C 1514.46875 1684.214844 1623.710938 1664.496094 1709.242188 1635.714844 C 1813.421875 1600.539062 1867.242188 1555.503906 1861.648438 1507.800781 C 1853.121094 1435.582031 1705.511719 1372.957031 1472.90625 1343.109375 C 1422.28125 1336.449219 1407.625 1336.449219 1450.789062 1343.109375 Z M 1450.789062 1343.109375 "/>
</g>
</svg>
