<?xml version="1.0" encoding="UTF-8" standalone="no"?>
<!-- Created with Inkscape (http://www.inkscape.org/) -->

<svg
   width="4.2333331mm"
   height="4.2334051mm"
   viewBox="0 0 4.2333331 4.2334051"
   version="1.1"
   id="svg248206"
   xmlns="http://www.w3.org/2000/svg"
   xmlns:svg="http://www.w3.org/2000/svg">
  <defs
     id="defs248203" />
  <g
     id="layer1"
     transform="translate(-148.18881,-143.22372)">
    <g
       id="g82478"
       transform="matrix(0.26458333,0,0,0.26458333,-108.9198,234.62841)"
       style="display:inline">
      <title
         id="title82468">map-marker-none</title>
      <rect
         id="rect82472"
         width="16"
         height="16"
         x="971.74908"
         y="-345.46628"
         rx="0"
         ry="0"
         style="fill:none" />
      <path
         id="path82476"
         style="fill:#222222;fill-opacity:1;stroke-width:1"
         d="m 979.7491,-345.46655 c -1.8957,3.2e-4 -3.58096,0.88428 -4.67969,2.25781 l -1.78906,-1.78906 -1.0625,1.0625 14,14 1.0625,-1.0625 -3.65234,-3.65234 c 0.44758,-0.54663 0.85477,-1.08117 1.16797,-1.57227 0.26292,-0.41226 0.46688,-0.80516 0.58398,-1.16992 l -0.0176,0.004 c 0.25109,-0.66401 0.38335,-1.36823 0.38867,-2.07812 4.3e-4,-3.31437 -2.68758,-6.00043 -6.00195,-6 z m 0,3.69336 c 1.27486,-4.2e-4 2.30902,1.03178 2.30859,2.30664 -3.9e-4,0.87818 -0.49239,1.6416 -1.21484,2.03125 l -3.125,-3.125 c 0.38965,-0.72187 1.15307,-1.2125 2.03125,-1.21289 z m -5.93555,1.43359 c -0.0417,0.28553 -0.0645,0.57596 -0.0644,0.87305 0.005,0.71039 0.13603,1.41538 0.38672,2.08008 l -0.0156,-0.004 c 0.63716,1.98467 3.77996,5.07878 5.62696,6.92578 l 0.002,0.002 v -0.004 c 0.56351,-0.56349 1.2483,-1.25258 1.94531,-1.99219 z" />
    </g>
  </g>
</svg>
