<?xml version="1.0" encoding="UTF-8"?>
<svg xmlns="http://www.w3.org/2000/svg" xmlns:xlink="http://www.w3.org/1999/xlink" width="16px" height="16px" viewBox="0 0 16 16" version="1.1">
    <g id="surface1">
        <path style=" stroke:none;fill-rule:nonzero;fill:rgb(18.039216%,20.392157%,21.176471%);fill-opacity:0.34902;" d="M 8 1.992188 C 5.382812 1.992188 2.761719 2.925781 0.804688 4.800781 L 0.308594 5.28125 C -0.0898438 5.660156 -0.101562 6.292969 0.277344 6.691406 C 0.660156 7.089844 1.292969 7.101562 1.691406 6.722656 L 2.191406 6.246094 C 5.277344 3.289062 10.722656 3.289062 13.808594 6.246094 L 14.308594 6.722656 C 14.707031 7.101562 15.339844 7.089844 15.722656 6.691406 C 16.101562 6.292969 16.089844 5.660156 15.691406 5.28125 L 15.195312 4.800781 C 13.238281 2.925781 10.617188 1.992188 8 1.992188 Z M 7.96875 6 C 6.398438 6.011719 4.839844 6.628906 3.761719 7.8125 L 3.261719 8.363281 C 2.886719 8.769531 2.914062 9.40625 3.324219 9.777344 C 3.734375 10.148438 4.367188 10.117188 4.738281 9.707031 L 5.238281 9.160156 C 6.515625 7.757812 9.398438 7.664062 10.761719 9.160156 L 11.261719 9.707031 C 11.632812 10.117188 12.265625 10.148438 12.675781 9.777344 C 13.082031 9.40625 13.113281 8.769531 12.738281 8.363281 L 12.238281 7.8125 C 11.113281 6.582031 9.535156 5.988281 7.96875 6 Z M 8 10 C 7.488281 10 6.976562 10.195312 6.585938 10.585938 C 5.804688 11.367188 5.804688 12.632812 6.585938 13.414062 C 7.367188 14.195312 8.632812 14.195312 9.414062 13.414062 C 10.195312 12.632812 10.195312 11.367188 9.414062 10.585938 C 9.023438 10.195312 8.511719 10 8 10 Z M 8 10 "/>
    </g>
</svg>
