<?xml version="1.0" encoding="UTF-8"?>
<svg xmlns="http://www.w3.org/2000/svg" xmlns:xlink="http://www.w3.org/1999/xlink" width="16px" height="16px" viewBox="0 0 16 16" version="1.1">
    <g id="surface1">
        <path style=" stroke:none;fill-rule:nonzero;fill:rgb(18.039216%,20.392157%,21.176471%);fill-opacity:0.34902;" d="M 8 1.992188 C 5.382812 1.992188 2.761719 2.925781 0.804688 4.800781 L 0.308594 5.28125 C -0.0898438 5.660156 -0.101562 6.292969 0.277344 6.691406 C 0.660156 7.089844 1.292969 7.101562 1.691406 6.71875 L 2.191406 6.242188 C 5.277344 3.289062 10.722656 3.289062 13.808594 6.242188 L 14.308594 6.71875 C 14.707031 7.101562 15.339844 7.089844 15.722656 6.691406 C 16.101562 6.292969 16.089844 5.660156 15.691406 5.28125 L 15.195312 4.800781 C 13.238281 2.925781 10.617188 1.992188 8 1.992188 Z M 7.96875 6 C 6.398438 6.011719 4.839844 6.628906 3.761719 7.8125 L 3.261719 8.363281 C 2.886719 8.769531 2.914062 9.40625 3.324219 9.777344 C 3.734375 10.148438 4.367188 10.117188 4.738281 9.707031 L 5.238281 9.164062 C 6.480469 7.800781 9.230469 7.671875 10.636719 9.035156 C 10.757812 9.011719 10.878906 9 11 9 C 11.53125 9 12.039062 9.210938 12.414062 9.585938 L 12.636719 9.808594 C 12.648438 9.796875 12.660156 9.789062 12.675781 9.777344 C 13.082031 9.40625 13.113281 8.769531 12.738281 8.363281 L 12.238281 7.8125 C 11.113281 6.582031 9.535156 5.988281 7.96875 6 Z M 8 10 C 7.488281 10 6.976562 10.195312 6.585938 10.585938 C 5.804688 11.367188 5.804688 12.632812 6.585938 13.414062 C 7.367188 14.195312 8.632812 14.195312 9.414062 13.414062 C 9.625 13.203125 9.773438 12.960938 9.871094 12.699219 L 9.585938 12.414062 C 9.03125 11.859375 8.878906 11.046875 9.117188 10.34375 C 8.78125 10.117188 8.390625 10 8 10 Z M 8 10 "/>
        <path style=" stroke:none;fill-rule:nonzero;fill:rgb(18.039216%,20.392157%,21.176471%);fill-opacity:1;" d="M 11 10 C 10.734375 10 10.480469 10.105469 10.292969 10.292969 C 9.902344 10.683594 9.902344 11.316406 10.292969 11.707031 L 11.585938 13 L 10.292969 14.292969 C 9.902344 14.683594 9.902344 15.316406 10.292969 15.707031 C 10.683594 16.097656 11.316406 16.097656 11.707031 15.707031 L 13 14.414062 L 14.292969 15.707031 C 14.683594 16.097656 15.316406 16.097656 15.707031 15.707031 C 16.097656 15.316406 16.097656 14.683594 15.707031 14.292969 L 14.414062 13 L 15.707031 11.707031 C 16.097656 11.316406 16.097656 10.683594 15.707031 10.292969 C 15.519531 10.105469 15.265625 10 15 10 C 14.734375 10 14.480469 10.105469 14.292969 10.292969 L 13 11.585938 L 11.707031 10.292969 C 11.519531 10.105469 11.265625 10 11 10 Z M 11 10 "/>
    </g>
</svg>