<?xml version="1.0" encoding="UTF-8"?>
<svg xmlns="http://www.w3.org/2000/svg" xmlns:xlink="http://www.w3.org/1999/xlink" width="16px" height="16px" viewBox="0 0 16 16" version="1.1">
    <g id="surface1">
        <path style=" stroke:none;fill-rule:nonzero;fill:rgb(18.039216%,20.392157%,20.392157%);fill-opacity:0.34902;" d="M 8 1.992188 C 5.382812 1.992188 2.761719 2.925781 0.804688 4.800781 L 0.308594 5.28125 C -0.0898438 5.660156 -0.101562 6.292969 0.277344 6.691406 C 0.660156 7.089844 1.292969 7.101562 1.691406 6.722656 L 2.191406 6.246094 C 2.773438 5.6875 3.441406 5.234375 4.160156 4.886719 C 4.492188 3.738281 5.332031 2.777344 6.46875 2.304688 C 7.03125 2.074219 7.621094 1.976562 8.203125 2.007812 C 9.171875 2.058594 10.113281 2.457031 10.828125 3.171875 C 11.316406 3.660156 11.652344 4.25 11.839844 4.886719 C 12.558594 5.234375 13.226562 5.6875 13.808594 6.246094 L 14.308594 6.722656 C 14.707031 7.101562 15.339844 7.089844 15.722656 6.691406 C 16.101562 6.292969 16.089844 5.660156 15.691406 5.28125 L 15.195312 4.800781 C 13.238281 2.925781 10.617188 1.992188 8 1.992188 Z M 4.707031 7 C 4.363281 7.230469 4.046875 7.503906 3.761719 7.8125 L 3.261719 8.363281 C 2.886719 8.769531 2.914062 9.40625 3.324219 9.777344 C 3.734375 10.148438 4.367188 10.117188 4.738281 9.707031 L 5.238281 9.160156 C 5.453125 8.925781 5.710938 8.730469 6 8.570312 L 6 8 C 6 7.613281 6.222656 7.308594 6.417969 7 Z M 11.761719 7.355469 C 11.742188 7.414062 11.71875 7.472656 11.695312 7.53125 C 11.449219 8.125 11.046875 8.59375 10.566406 8.96875 C 10.632812 9.03125 10.699219 9.09375 10.761719 9.164062 L 11.261719 9.707031 C 11.632812 10.117188 12.265625 10.148438 12.675781 9.777344 C 13.082031 9.40625 13.113281 8.769531 12.738281 8.363281 L 12.238281 7.816406 C 12.085938 7.648438 11.929688 7.496094 11.761719 7.355469 Z M 11.761719 7.355469 "/>
        <path style=" stroke:none;fill-rule:nonzero;fill:rgb(18.039216%,20.392157%,21.176471%);fill-opacity:1;" d="M 8.152344 3.007812 C 7.714844 2.984375 7.269531 3.054688 6.851562 3.230469 C 5.734375 3.691406 5 4.789062 5 6 L 7 6 C 7 5.59375 7.242188 5.230469 7.617188 5.074219 C 7.992188 4.921875 8.417969 5.003906 8.707031 5.292969 C 8.996094 5.582031 9.078125 6.007812 8.925781 6.382812 C 8.769531 6.757812 8.40625 7 8 7 C 7.449219 7 7 7.449219 7 8 L 7 10 L 9 10 L 9 8.820312 C 9.785156 8.539062 10.441406 7.945312 10.769531 7.148438 C 11.234375 6.03125 10.976562 4.734375 10.121094 3.878906 C 9.585938 3.34375 8.878906 3.042969 8.152344 3.007812 Z M 8 11 C 7.449219 11 7 11.449219 7 12 C 7 12.550781 7.449219 13 8 13 C 8.550781 13 9 12.550781 9 12 C 9 11.449219 8.550781 11 8 11 Z M 8 11 "/>
    </g>
</svg>
