<?xml version="1.0" standalone="no"?>
<!DOCTYPE svg PUBLIC "-//W3C//DTD SVG 20010904//EN"
 "http://www.w3.org/TR/2001/REC-SVG-20010904/DTD/svg10.dtd">
<svg version="1.0" xmlns="http://www.w3.org/2000/svg"
 width="2850.000000pt" height="2850.000000pt" viewBox="0 0 2850.000000 2850.000000"
 preserveAspectRatio="xMidYMid meet">

<g transform="translate(0.000000,2850.000000) scale(0.100000,-0.100000)"
fill="#000000" stroke="none">
<path d="M12675 22690 l-1810 -1810 908 0 907 0 0 -1810 0 -1810 1810 0 1810
0 0 1810 0 1810 907 0 908 0 -1810 1810 c-995 996 -1812 1810 -1815 1810 -3 0
-820 -814 -1815 -1810z"/>
<path d="M9180 14925 l0 -1485 1490 0 1490 0 0 1485 0 1485 -1490 0 -1490 0 0
-1485z m2550 -5 l0 -1060 -1060 0 -1060 0 0 1060 0 1060 1060 0 1060 0 0
-1060z"/>
<path d="M10030 14925 l0 -635 640 0 640 0 0 635 0 635 -640 0 -640 0 0 -635z"/>
<path d="M13000 15985 l0 -425 -210 0 -210 0 0 -1275 0 -1275 635 0 635 0 0
-210 0 -210 215 0 215 0 0 210 0 210 -212 2 -213 3 -3 638 -2 637 215 0 215 0
0 -425 0 -425 210 0 210 0 0 210 0 210 210 0 210 0 0 -425 0 -425 -210 0 -210
0 0 -420 0 -420 -210 0 -210 0 0 -425 0 -425 -215 0 -215 0 0 -215 0 -215
-210 0 -210 0 0 640 0 640 -215 0 -215 0 0 210 0 210 -420 0 -420 0 0 210 0
210 -1065 0 -1065 0 0 -210 0 -210 425 0 425 0 0 -210 0 -210 215 0 215 0 0
210 0 210 420 0 420 0 0 -210 0 -210 -210 0 -210 0 0 -215 0 -215 210 0 210 0
0 -210 0 -210 -420 0 -420 0 0 210 0 210 -215 0 -215 0 0 -210 0 -210 -210 0
-210 0 0 210 0 210 -215 0 -215 0 0 215 0 215 -210 0 -210 0 0 420 0 420 -215
0 -215 0 0 -420 0 -420 215 0 215 0 0 -425 0 -425 -212 -2 -213 -3 0 -1060 0
-1060 210 0 210 0 3 848 2 847 425 0 425 0 0 -210 0 -210 -215 0 -215 0 2
-212 3 -213 423 -3 422 -2 0 -210 0 -210 215 0 215 0 0 425 0 425 210 0 210 0
0 -215 0 -215 425 0 425 0 0 -210 0 -210 -425 0 -425 0 0 -215 0 -215 425 0
425 0 0 -210 0 -210 210 0 210 0 0 -210 0 -210 -210 0 -210 0 0 -850 0 -850
210 0 210 0 0 635 0 635 215 0 215 0 0 -425 0 -425 210 0 210 0 0 -210 0 -210
-210 0 -210 0 -2 -212 -3 -213 -422 -3 -423 -2 0 -210 0 -210 850 0 850 0 0
425 0 425 210 0 210 0 0 210 0 210 -422 2 -423 3 -3 422 -2 423 -210 0 -210 0
0 215 0 215 210 0 210 0 0 210 0 210 -425 0 -425 0 0 210 0 210 213 2 212 3 3
213 2 212 210 0 210 0 2 -212 3 -213 213 -3 212 -2 0 -210 0 -210 210 0 210 0
0 -210 0 -210 -210 0 -210 0 0 -425 0 -425 210 0 210 0 0 210 0 210 210 0 210
0 0 -210 0 -210 215 0 215 0 0 -215 0 -215 210 0 210 0 0 -210 0 -210 -425 0
-425 0 2 -213 3 -212 638 -3 637 -2 0 -210 0 -210 1695 0 1695 0 0 1485 0
1485 -635 0 -635 0 0 210 0 210 213 2 212 3 3 213 2 212 -215 0 -215 0 0 -215
0 -215 -210 0 -210 0 0 425 0 425 210 0 210 0 0 425 0 425 210 0 210 0 2 -422
3 -423 213 -3 212 -2 0 -210 0 -210 210 0 210 0 0 425 0 425 -210 0 -210 0 0
210 0 210 210 0 210 0 0 640 0 640 -210 0 -210 0 0 210 0 210 -210 0 -210 0 0
210 0 210 -1065 0 -1065 0 0 -210 0 -210 -210 0 -210 0 0 210 0 210 -425 0
-425 0 0 425 0 425 210 0 210 0 0 -210 0 -210 215 0 215 0 0 425 0 425 -635 0
-635 0 0 210 0 210 210 0 210 0 0 425 0 425 210 0 210 0 0 -210 0 -210 215 0
215 0 0 210 0 210 -210 0 -210 0 0 210 0 210 208 2 207 3 3 213 2 212 -215 0
-215 0 0 -215 0 -215 -210 0 -210 0 0 -210 0 -210 -210 0 -210 0 0 210 0 210
-637 2 -638 3 -3 213 -2 212 -425 0 -425 0 0 -425z m850 -215 l0 -210 -210 0
-210 0 0 210 0 210 210 0 210 0 0 -210z m1270 -420 l0 -210 -420 0 -420 0 0
-215 0 -215 -425 0 -425 0 0 215 0 215 425 0 425 0 0 210 0 210 420 0 420 0 0
-210z m-1690 -1700 l0 -210 -215 0 -215 0 0 210 0 210 215 0 215 0 0 -210z
m2540 -1270 l0 -210 -420 0 -420 0 0 210 0 210 420 0 420 0 0 -210z m1280 0
l0 -210 210 0 210 0 0 210 0 210 635 0 635 0 2 -422 3 -423 213 -3 212 -2 0
-210 0 -210 -425 0 -425 0 0 -215 0 -215 -210 0 -210 0 -2 213 -3 212 -212 3
-213 2 0 -215 0 -215 210 0 210 0 0 -210 0 -210 -210 0 -210 0 0 210 0 210
-210 0 -210 0 0 -210 0 -210 -215 0 -215 0 2 -212 3 -213 213 -3 212 -2 0
-210 0 -210 -635 0 -635 0 0 210 0 210 208 2 207 3 3 213 2 212 210 0 210 0 0
210 0 210 215 0 215 0 0 215 0 215 210 0 210 0 0 210 0 210 -210 0 -210 0 0
215 0 215 -215 0 -215 0 0 210 0 210 215 0 215 0 0 -210z m-4250 -425 l0 -215
-210 0 -210 0 0 215 0 215 210 0 210 0 0 -215z m2120 -210 l0 -425 -210 0
-210 0 0 425 0 425 210 0 210 0 0 -425z m1280 -215 l0 -640 -210 0 -210 0 -2
213 -3 212 -212 3 -213 2 0 -215 0 -215 210 0 210 0 0 -210 0 -210 -420 0
-420 0 0 425 0 425 210 0 210 0 0 210 0 210 213 2 212 3 3 213 2 212 210 0
210 0 0 -640z m-5100 -425 l0 -215 -210 0 -210 0 0 215 0 215 210 0 210 0 0
-215z m1700 0 l0 -215 215 0 215 0 0 -635 0 -635 -215 0 -215 0 0 -215 0 -215
-210 0 -210 0 0 215 0 215 210 0 210 0 0 210 0 210 -210 0 -210 0 0 215 0 215
210 0 210 0 0 210 0 210 -210 0 -210 0 0 215 0 215 210 0 210 0 0 -215z m-850
-425 l0 -210 -210 0 -210 0 0 210 0 210 210 0 210 0 0 -210z m2550 0 l0 -210
-425 0 -425 0 0 210 0 210 425 0 425 0 0 -210z m420 -850 l0 -210 215 0 215 0
0 -425 0 -425 210 0 210 0 0 -425 0 -425 -420 0 -420 0 0 215 0 215 210 0 210
0 0 210 0 210 -210 0 -210 0 0 210 0 210 -425 0 -425 0 0 425 0 425 420 0 420
0 0 -210z m2550 -1275 l0 -635 -635 0 -635 0 0 635 0 635 635 0 635 0 0 -635z
m850 5 l0 -210 210 0 210 0 0 -215 0 -215 -210 0 -210 0 0 -210 0 -210 -210 0
-210 0 0 210 0 210 210 0 210 0 0 215 0 215 -210 0 -210 0 0 210 0 210 210 0
210 0 0 -210z m-2122 -1272 l-3 -213 -207 -3 -208 -2 0 215 0 215 210 0 210 0
-2 -212z m1274 0 l3 -213 208 -3 207 -2 0 -210 0 -210 -420 0 -420 0 -2 -212
-3 -213 -422 -3 -423 -2 0 425 0 425 423 2 422 3 3 213 2 212 210 0 210 0 2
-212z m1698 -643 l0 -425 -425 0 -425 0 0 215 0 215 215 0 215 0 0 210 0 210
210 0 210 0 0 -425z"/>
<path d="M17670 11955 l0 -215 425 0 425 0 0 215 0 215 -425 0 -425 0 0 -215z"/>
<path d="M16820 8560 l0 -210 215 0 215 0 0 210 0 210 -215 0 -215 0 0 -210z"/>
<path d="M16820 14925 l0 -1485 1485 0 1485 0 0 1485 0 1485 -1485 0 -1485 0
0 -1485z m2550 -5 l0 -1060 -1060 0 -1060 0 0 1060 0 1060 1060 0 1060 0 0
-1060z"/>
<path d="M17670 14925 l0 -635 640 0 640 0 0 635 0 635 -640 0 -640 0 0 -635z"/>
<path d="M9180 7285 l0 -1485 1490 0 1490 0 0 1485 0 1485 -1490 0 -1490 0 0
-1485z m2550 0 l0 -1065 -1060 0 -1060 0 0 1065 0 1065 1060 0 1060 0 0 -1065z"/>
<path d="M10030 7285 l0 -635 640 0 640 0 0 635 0 635 -640 0 -640 0 0 -635z"/>
</g>
</svg>
