<?xml version="1.0" encoding="UTF-8" standalone="no"?>
<!-- Created with Inkscape (http://www.inkscape.org/) -->

<svg
   width="4.9989548mm"
   height="3.1307149mm"
   viewBox="0 0 4.9989548 3.1307149"
   version="1.1"
   id="svg248206"
   xmlns="http://www.w3.org/2000/svg"
   xmlns:svg="http://www.w3.org/2000/svg">
  <defs
     id="defs248203" />
  <g
     id="layer1"
     transform="translate(-152.08589,-152.6988)">
    <g
       id="g82478"
       transform="matrix(0.26458333,0,0,0.26458333,-108.9198,234.62841)"
       style="display:inline">
      <title
         id="title82468">map-marker-none</title>
      <path
         id="rect520110-5"
         style="display:inline;fill:#222222;fill-opacity:1;stroke-width:0.996414"
         d="m 1002.3149,-308.68989 c 0.5547,0.56461 0.8965,1.34022 0.9003,2.18753 l 0.035,3.86217 0.4226,-0.42261 c 0.3906,-0.39052 1.0215,-0.39279 1.4092,-0.005 0.3877,0.38773 0.3854,1.01863 0,1.40915 l -2.1213,2.12132 c -0.3906,0.39046 -1.0214,0.39273 -1.4092,0.005 l -2.10612,-2.10613 c -0.38772,-0.38773 -0.38545,-1.01863 0.005,-1.40915 0.39052,-0.39052 1.02142,-0.39279 1.40912,-0.005 l 0.4032,0.40313 -0.021,-3.84615 c 0,-0.51331 -0.6122,-1.1363 -1.1078,-1.1382 l -7.72126,-0.0287 c -0.55021,-0.003 -0.99094,-0.45077 -0.98445,-1.001 0.007,-0.55024 0.4579,-0.99421 1.00809,-0.99169 l 7.70282,0.0443 c 0.8562,0.003 1.6209,0.36135 2.1806,0.92103 z m -2.2917,9.06534 c 0.2559,0.18847 0.4052,0.48879 0.4016,0.8077 0,0.55024 -0.45514,0.99542 -1.00552,0.99424 l -7.65055,-0.0473 c -0.86827,-0.003 -1.63005,-0.3926 -2.19972,-0.95124 -0.56982,-0.5585 -0.97556,-1.32361 -0.97599,-2.20514 l -0.002,-3.80437 -0.41432,0.41432 c -0.39052,0.39052 -1.02142,0.39279 -1.40915,0.005 -0.38772,-0.38772 -0.38546,-1.01863 0.005,-1.40915 l 2.12132,-2.12132 c 0.39055,-0.39046 1.02141,-0.39272 1.40915,-0.005 l 2.10614,2.10613 c 0.38772,0.38773 0.38545,1.01863 -0.005,1.40915 -0.39052,0.39052 -1.02142,0.39279 -1.40915,0.005 l -0.41135,-0.41135 -0.0137,3.82013 c -8e-4,0.22247 0.13274,0.53811 0.38386,0.78437 0.25081,0.24657 0.58721,0.38558 0.8229,0.38648 l 7.66342,0.0316 c 0.20993,3.9e-4 0.41389,0.0671 0.58276,0.19056 z" />
    </g>
  </g>
</svg>
