<?xml version="1.0" encoding="UTF-8" standalone="no"?>
<!-- Created with Inkscape (http://www.inkscape.org/) -->

<svg
   width="4.2380142mm"
   height="4.2345686mm"
   viewBox="0 0 4.2380142 4.2345686"
   version="1.1"
   id="svg8240"
   xmlns="http://www.w3.org/2000/svg"
   xmlns:svg="http://www.w3.org/2000/svg">
  <defs
     id="defs8237" />
  <g
     id="layer1"
     transform="translate(-95.827801,-112.9815)">
    <g
       transform="matrix(0.26458333,0,0,0.26458333,-79.05721,210.08361)"
       id="g2874"
       style="fill:#222222">
      <title
         id="title2876">timer</title>
      <rect
         style="fill:none"
         id="rect7786"
         width="16"
         height="16"
         x="660.98273"
         y="-366.99542" />
      <path
         id="path7818"
         transform="translate(81.0002,-567)"
         d="m 588,200 a 1.0000999,1.0000999 0 0 0 -1,1.16406 V 204 h 2 v -1.91406 c 2.37736,0.39914 4.32095,2.19537 4.85742,4.61523 0.61015,2.75218 -0.76738,5.54497 -3.32226,6.73633 -2.55489,1.19136 -5.57883,0.45131 -7.29493,-1.78516 -1.71609,-2.23646 -1.64795,-5.35028 0.16407,-7.50976 a 1.0002961,1.0002961 0 1 0 -1.53321,-1.28516 c -2.4075,2.86916 -2.49686,7.04028 -0.21679,10.01172 2.28006,2.97144 6.33206,3.96374 9.72656,2.38086 3.3945,-1.58288 5.24034,-5.32579 4.42969,-8.98242 C 594.99989,202.61094 591.74542,200 588,200 Z m -3.00977,3.99023 a 1.0001,1.0001 0 0 0 -0.69726,1.7168 l 1.77734,1.77735 a 2,2 0 0 0 0.51563,1.92968 2,2 0 0 0 2.82812,0 2,2 0 0 0 0,-2.82812 2,2 0 0 0 -1.92968,-0.51563 l -1.77735,-1.77734 a 1.0001,1.0001 0 0 0 -0.7168,-0.30274 z"
         style="fill:#222222"
         mask="none" />
    </g>
  </g>
</svg>
